<?xml version="1.0" standalone="no"?>
<!DOCTYPE svg PUBLIC "-//W3C//DTD SVG 20010904//EN"
 "http://www.w3.org/TR/2001/REC-SVG-20010904/DTD/svg10.dtd">
<svg version="1.0" xmlns="http://www.w3.org/2000/svg"
 width="1080.000000pt" height="1080.000000pt" viewBox="0 0 1080.000000 1080.000000"
 preserveAspectRatio="xMidYMid meet">

<g transform="translate(0.000000,1080.000000) scale(0.100000,-0.100000)"
fill="#000000" stroke="none">
<path d="M5185 9308 c-70 -118 -115 -272 -115 -392 0 -84 20 -130 73 -164 112
-72 128 -98 91 -150 -22 -32 -11 -39 14 -8 11 15 24 26 29 26 19 0 40 36 58
98 20 69 16 88 -24 108 -51 26 -79 66 -106 151 -33 102 -30 180 10 291 43 119
29 138 -30 40z m-34 -233 c2 -45 11 -81 41 -165 10 -31 79 -110 95 -110 6 0
16 -7 23 -16 11 -12 10 -25 -4 -70 -16 -50 -36 -73 -36 -40 0 14 -62 69 -104
92 -67 37 -80 159 -35 326 5 22 12 38 14 37 2 -2 4 -26 6 -54z"/>
<path d="M5960 9306 c-66 -67 -104 -122 -142 -206 -36 -77 -34 -123 7 -222 15
-35 32 -75 38 -90 9 -22 8 -34 -6 -62 -22 -48 -78 -108 -121 -131 -20 -11 -36
-25 -36 -32 0 -50 159 82 198 165 13 26 14 38 5 60 -6 15 -23 55 -38 90 -42
100 -43 147 -7 217 48 95 79 128 47 51 -14 -33 -14 -40 4 -84 28 -71 51 -155
51 -188 0 -16 -6 -53 -14 -82 -16 -65 -2 -68 25 -4 29 67 19 160 -32 288 -16
40 -9 62 51 167 27 48 50 94 50 102 0 28 -27 15 -80 -39z"/>
<path d="M4590 9130 c-11 -21 -20 -49 -20 -60 0 -33 -24 -81 -63 -128 -48 -57
-56 -100 -28 -146 12 -19 28 -54 35 -78 12 -37 14 -39 15 -15 1 15 -10 50 -24
77 -14 27 -25 58 -25 69 0 20 59 112 76 118 5 2 17 -17 27 -42 16 -37 17 -51
8 -76 -15 -44 -13 -129 4 -159 19 -33 19 -142 -1 -226 -9 -42 -12 -70 -6 -76
29 -29 57 265 30 316 -7 12 -8 51 -5 104 5 63 2 94 -8 119 -22 52 -21 83 3
130 22 43 30 113 12 113 -5 0 -19 -18 -30 -40z"/>
<path d="M5495 8973 c-19 -44 -13 -66 23 -83 37 -19 72 -51 72 -66 0 -7 -14
-29 -31 -49 -43 -48 -27 -60 17 -13 39 43 45 85 15 112 -12 11 -21 37 -25 76
-6 55 -9 60 -31 60 -19 0 -28 -9 -40 -37z"/>
<path d="M4880 8858 c-18 -20 -21 -31 -16 -83 2 -33 8 -77 11 -97 6 -34 -1
-70 -30 -140 -4 -10 -3 -18 2 -18 17 0 55 94 59 144 2 26 5 50 8 53 2 3 0 17
-5 33 -7 19 -7 42 1 70 14 54 1 71 -30 38z"/>
<path d="M4240 8618 c-12 -24 -31 -69 -41 -102 -19 -58 -19 -58 1 -87 24 -33
20 -62 -18 -127 -18 -31 -22 -46 -14 -54 12 -12 42 5 42 24 0 5 14 29 30 53
37 54 38 71 1 110 l-29 30 29 95 c15 52 27 96 25 98 -2 1 -14 -16 -26 -40z"/>
<path d="M6134 8636 c-29 -45 -16 -166 18 -166 9 0 9 3 0 12 -7 7 -12 27 -12
45 l0 34 41 -41 c22 -22 42 -40 45 -40 14 0 -1 37 -26 67 -21 23 -30 44 -30
68 0 44 -15 52 -36 21z"/>
<path d="M5280 8361 c-8 -5 -86 -13 -173 -19 -161 -11 -281 -32 -467 -82 -58
-16 -129 -34 -159 -41 -145 -32 -327 -128 -467 -246 l-51 -43 -68 15 c-60 14
-70 14 -90 1 -13 -9 -26 -30 -30 -48 -4 -18 -11 -37 -14 -43 -13 -18 -61 -136
-61 -149 0 -22 71 -96 113 -117 38 -20 90 -19 102 2 12 18 24 7 71 -66 27 -42
64 -96 82 -120 25 -34 32 -54 32 -89 0 -63 37 -200 67 -245 9 -14 40 -71 68
-126 29 -55 70 -127 94 -160 104 -149 111 -163 105 -208 -8 -54 8 -112 57
-214 29 -60 47 -87 69 -98 17 -9 30 -19 30 -23 0 -4 -28 -23 -62 -42 -34 -19
-73 -45 -87 -56 -14 -12 -57 -43 -95 -69 -72 -49 -86 -50 -110 -12 -7 12 -6
21 6 34 75 85 113 305 67 394 -21 43 -80 78 -130 79 -22 0 -30 10 -57 68 -38
80 -71 118 -111 127 -47 10 -176 -12 -234 -41 -130 -65 -264 -190 -342 -318
-68 -111 -74 -134 -75 -268 l0 -117 32 -36 c37 -43 164 -140 199 -154 18 -6
29 -22 38 -53 7 -23 19 -50 26 -58 7 -8 14 -20 16 -26 2 -6 26 -38 54 -70 132
-156 176 -179 350 -189 100 -5 135 -3 213 14 51 11 107 27 125 35 18 8 54 24
80 35 27 11 68 34 93 50 24 17 77 42 118 57 52 18 85 37 112 65 21 21 41 39
45 39 4 0 10 -16 13 -35 4 -19 34 -101 66 -182 33 -81 60 -156 60 -165 0 -29
31 -99 78 -175 25 -41 42 -79 39 -87 -6 -15 -41 -38 -155 -104 -31 -18 -85
-58 -119 -90 -56 -51 -63 -62 -67 -102 -4 -34 -13 -52 -37 -74 l-32 -28 -46
51 c-57 63 -148 118 -210 127 -25 3 -62 14 -81 24 -51 27 -73 29 -153 18 -94
-13 -190 -63 -233 -121 -112 -154 -167 -392 -130 -558 25 -110 125 -253 239
-341 19 -15 53 -60 75 -101 44 -80 125 -162 197 -200 73 -37 337 -32 402 9 12
8 47 23 78 35 38 14 74 38 113 77 31 32 84 82 117 112 76 70 99 99 192 240 71
105 76 118 78 170 2 66 20 103 77 159 57 55 179 159 230 195 22 16 43 37 45
47 5 16 154 149 168 149 4 0 17 -13 30 -29 29 -34 121 -61 362 -106 22 -4 33
-13 37 -30 14 -55 125 -78 171 -35 15 14 29 20 33 14 25 -29 62 -84 80 -119
27 -53 93 -120 142 -145 64 -33 176 -28 286 12 108 39 139 61 192 137 39 55
68 140 58 167 -3 7 -6 52 -7 100 -2 87 -2 87 -78 238 -64 128 -85 161 -141
216 -36 36 -86 80 -112 98 -27 18 -48 36 -48 40 0 5 16 6 35 4 51 -6 164 27
207 60 21 16 42 27 48 23 26 -16 95 21 168 92 132 129 151 216 88 398 -54 158
-71 200 -110 263 -21 36 -36 73 -36 92 0 26 -11 42 -61 88 -33 31 -119 115
-191 185 -139 137 -135 135 -268 172 -95 27 -151 31 -215 14 -22 -5 -87 -14
-145 -19 -63 -5 -127 -17 -160 -29 -75 -29 -81 -28 -73 12 3 17 10 37 14 43 5
6 18 36 28 66 10 30 35 86 54 124 19 38 38 85 41 104 4 19 19 54 34 76 16 23
36 68 46 100 9 33 26 86 38 119 11 33 22 74 25 91 3 18 19 45 39 64 44 41 111
154 120 203 l6 38 53 -6 c51 -7 53 -6 77 27 36 47 48 90 55 194 7 109 -4 151
-54 195 -32 27 -42 31 -79 26 -24 -2 -65 -16 -92 -30 l-49 -25 -62 39 c-184
116 -378 173 -699 204 -190 19 -451 27 -472 16z m495 -56 c262 -27 390 -59
548 -135 168 -81 227 -137 227 -217 0 -46 -23 -88 -84 -151 -88 -92 -170 -140
-358 -211 -57 -21 -121 -46 -143 -54 -54 -21 -185 -60 -325 -96 -90 -23 -147
-31 -260 -36 -272 -12 -515 -14 -585 -4 -109 14 -206 30 -250 40 -22 4 -92 18
-155 30 -125 22 -169 33 -215 54 -16 7 -47 20 -68 29 -118 48 -203 231 -149
318 65 105 343 271 532 318 47 11 126 32 175 45 50 13 110 27 135 30 25 4 68
13 97 21 145 41 579 51 878 19z m930 -215 c27 -30 34 -102 19 -184 -24 -126
-46 -150 -102 -110 -27 19 -30 54 -4 54 57 0 87 95 56 177 -22 59 -31 65 -65
47 -52 -26 -69 -11 -21 18 39 23 95 23 117 -2z m-65 -118 c0 -27 -17 -62 -29
-62 -13 0 -19 114 -6 122 12 9 34 -29 35 -60z m-2777 -59 c4 -3 -3 -17 -15
-30 -13 -14 -24 -44 -29 -75 -5 -29 -11 -62 -14 -74 -9 -30 24 -65 71 -74 l39
-7 -27 -13 c-14 -7 -37 -10 -51 -7 -26 7 -87 61 -87 77 0 18 74 195 85 202 13
10 20 10 28 1z m62 -12 c10 -17 -11 -21 -31 -6 -18 14 -18 14 3 15 12 0 24 -4
28 -9z m-25 -52 c-2 -8 -5 -42 -5 -76 0 -67 -7 -82 -28 -64 -10 8 -13 27 -10
64 7 83 12 99 31 95 10 -3 15 -10 12 -19z m2640 -91 c0 -82 -37 -165 -115
-257 -19 -24 -35 -54 -35 -67 0 -13 -11 -57 -25 -98 -14 -41 -25 -82 -25 -91
0 -9 -15 -48 -34 -88 -19 -40 -44 -97 -56 -127 -13 -30 -30 -66 -39 -79 -30
-47 -93 -206 -108 -275 -20 -90 -66 -167 -146 -241 -75 -69 -173 -117 -382
-185 -71 -23 -143 -49 -160 -58 -80 -41 -290 -45 -428 -8 -32 9 -68 16 -81 16
-29 0 -175 49 -249 84 -31 15 -68 42 -82 60 -41 53 -86 164 -115 281 -34 135
-34 136 -87 211 -24 34 -43 65 -43 69 0 3 -11 21 -25 39 -14 18 -25 38 -25 45
0 6 -18 46 -39 89 -39 77 -71 169 -71 204 0 21 20 14 55 -19 42 -40 126 -92
140 -86 26 10 16 29 -32 62 -150 99 -200 142 -254 219 -24 35 -55 77 -67 93
-13 16 -19 29 -14 29 5 0 14 -6 21 -13 6 -7 50 -32 98 -55 70 -33 119 -48 246
-71 86 -17 161 -32 165 -34 4 -3 74 -15 155 -27 137 -21 172 -22 470 -17 331
6 388 11 511 47 159 47 362 113 371 120 11 9 74 33 150 57 102 31 229 109 300
182 21 23 43 41 47 41 4 0 8 -24 8 -52z m-2506 -1082 c17 -18 46 -54 63 -79
l33 -46 -50 -36 c-28 -20 -50 -41 -50 -46 0 -21 -18 -7 -23 19 -11 49 -128 99
-183 78 -16 -6 -16 -8 0 -25 10 -11 34 -22 54 -26 51 -10 69 -21 87 -56 16
-29 15 -31 -16 -66 -17 -20 -36 -50 -42 -66 l-10 -30 -19 36 c-10 20 -31 45
-46 54 -15 10 -40 30 -55 45 -16 16 -33 28 -38 28 -24 0 -2 -33 70 -102 79
-77 111 -134 103 -184 -4 -28 -60 -81 -94 -89 -25 -6 -28 -4 -28 19 0 44 -87
178 -136 210 -45 30 -48 12 -6 -37 59 -68 106 -168 98 -209 -8 -41 -33 -68
-62 -68 -18 0 -29 11 -45 43 -36 71 -90 115 -119 97 -11 -7 -5 -18 27 -53 23
-25 51 -63 62 -86 20 -38 24 -41 65 -41 48 0 91 27 106 65 6 16 19 24 49 28
47 6 103 48 121 89 10 22 16 26 30 18 28 -15 87 -12 122 6 52 27 118 94 118
120 0 29 -13 31 -40 4 -54 -54 -113 -90 -146 -90 -47 0 -84 37 -84 83 0 36 26
71 147 196 49 50 54 53 89 46 49 -9 83 -32 90 -62 9 -33 -4 -174 -20 -228 -20
-64 -71 -131 -129 -168 -29 -19 -79 -57 -112 -85 -66 -57 -196 -125 -235 -125
-95 2 -157 21 -234 73 -42 29 -88 69 -102 89 -21 32 -24 46 -23 131 0 109 8
133 87 262 45 74 68 99 151 166 101 82 151 107 236 121 92 16 105 13 139 -23z
m2611 4 c3 -5 -3 -10 -14 -10 -11 0 -23 5 -26 10 -3 6 3 10 14 10 11 0 23 -4
26 -10z m119 -16 c23 -9 20 -24 -4 -24 -11 0 -20 7 -20 15 0 17 2 18 24 9z
m-284 -94 c0 -5 -7 -10 -15 -10 -8 0 -15 5 -15 10 0 6 7 10 15 10 8 0 15 -4
15 -10z m-348 -22 c-7 -7 -12 -8 -12 -2 0 14 12 26 19 19 2 -3 -1 -11 -7 -17z
m-70 -108 c-9 -16 -23 -30 -29 -30 -19 0 -16 11 9 37 30 32 40 29 20 -7z m708
-215 c0 -8 -4 -15 -10 -15 -5 0 -10 7 -10 15 0 8 5 15 10 15 6 0 10 -7 10 -15z
m-214 -72 c69 -74 100 -117 118 -167 l19 -49 -66 -61 c-104 -96 -120 -165 -68
-279 24 -54 35 -67 72 -85 24 -12 43 -24 41 -27 -2 -3 -1 -19 3 -36 4 -19 21
-41 47 -60 l41 -29 -64 0 c-82 0 -160 -29 -216 -81 -39 -36 -45 -38 -90 -34
-56 6 -113 16 -113 20 0 1 9 23 20 49 38 85 13 183 -75 306 -68 93 -106 270
-80 376 2 11 -2 29 -10 40 -8 10 -15 22 -15 25 0 4 28 12 62 19 34 6 91 22
127 35 36 13 88 29 116 35 57 13 78 27 70 48 -3 7 -2 19 2 25 4 6 9 3 14 -9 4
-11 24 -39 45 -61z m-946 40 c0 -11 -58 -43 -76 -43 -23 0 -7 19 29 34 38 17
47 19 47 9z m990 -3 c0 -5 -2 -10 -4 -10 -3 0 -8 5 -11 10 -3 6 -1 10 4 10 6
0 11 -4 11 -10z m580 1 c0 -13 -82 -113 -88 -107 -5 5 74 116 83 116 3 0 5 -4
5 -9z m98 -52 c22 -39 51 -112 74 -189 5 -19 19 -66 30 -104 21 -73 20 -149
-4 -201 -14 -30 -24 -32 -31 -4 -8 29 -41 21 -45 -11 -7 -69 -23 -99 -71 -134
-56 -41 -66 -44 -51 -16 15 28 9 85 -9 85 -8 0 -18 -13 -22 -28 -8 -31 -74
-117 -90 -117 -5 0 -2 17 6 37 32 76 -12 88 -50 13 -34 -67 -58 -82 -126 -74
-88 9 -130 24 -163 57 l-31 31 48 9 c41 8 50 7 61 -9 12 -15 16 -16 30 -5 39
33 5 150 -54 185 -39 23 -46 5 -15 -40 14 -20 25 -42 25 -49 0 -27 -94 -34
-139 -10 -48 24 -75 128 -53 201 4 11 34 51 67 88 l60 67 51 -12 c45 -10 64
-9 147 10 84 20 102 29 160 75 60 48 157 158 157 178 0 19 17 5 38 -33z
m-2492 10 c10 -17 7 -70 -5 -82 -6 -6 -11 -7 -12 -1 0 5 -1 28 -3 52 -2 41 6
54 20 31z m62 -40 c-1 -16 -5 -29 -9 -29 -8 0 -19 52 -12 63 10 16 23 -5 21
-34z m1319 18 c-5 -15 -56 -27 -63 -15 -8 13 7 23 41 24 15 1 24 -3 22 -9z
m-212 -36 c-14 -29 -35 -42 -35 -22 0 12 41 63 47 57 2 -2 -3 -18 -12 -35z
m-605 0 c0 -11 -25 -21 -51 -21 -24 0 -25 17 -1 23 30 8 52 7 52 -2z m-230 -9
c0 -19 -23 -31 -42 -21 -27 15 -22 29 12 29 17 0 30 -4 30 -8z m80 -32 c0 -5
-4 -10 -10 -10 -5 0 -10 5 -10 10 0 6 5 10 10 10 6 0 10 -4 10 -10z m900 -15
c0 -8 -4 -15 -10 -15 -5 0 -10 7 -10 15 0 8 5 15 10 15 6 0 10 -7 10 -15z
m-1981 -51 c-13 -14 -25 -20 -27 -14 -5 15 17 40 36 40 12 0 10 -6 -9 -26z
m225 -104 c-8 -33 -19 -11 -29 54 -5 36 -3 51 7 57 10 6 15 -3 20 -39 5 -26 5
-58 2 -72z m-144 85 c0 -9 -6 -12 -16 -8 -13 5 -13 7 -2 14 17 11 18 11 18 -6z
m667 -7 c-3 -8 -6 -5 -6 6 -1 11 2 17 5 13 3 -3 4 -12 1 -19z m-662 -28 c3 -5
1 -10 -4 -10 -6 0 -11 5 -11 10 0 6 2 10 4 10 3 0 8 -4 11 -10z m-195 -29 c0
-5 -8 -11 -17 -15 -10 -3 -25 -9 -33 -12 -8 -3 -4 4 10 15 27 22 40 26 40 12z
m2090 -5 c0 -16 -18 -31 -27 -22 -8 8 5 36 17 36 5 0 10 -6 10 -14z m-1834
-83 c-10 -25 -26 -2 -19 26 5 20 7 21 15 7 5 -10 7 -24 4 -33z m-605 4 c-13
-13 -26 -3 -16 12 3 6 11 8 17 5 6 -4 6 -10 -1 -17z m2463 -102 l17 -54 -42
-63 c-29 -45 -64 -80 -120 -121 -76 -56 -212 -127 -242 -127 -8 0 -20 -7 -27
-15 -7 -8 -28 -15 -47 -15 -19 0 -55 -10 -81 -22 -48 -22 -79 -25 -142 -14
-19 4 -65 12 -102 18 -70 12 -76 16 -57 35 9 9 5 14 -15 19 -16 4 -41 24 -58
48 l-30 41 189 6 c103 3 207 11 230 18 38 10 121 49 261 119 58 30 185 122
217 158 11 13 23 23 26 23 3 1 13 -24 23 -54z m-390 -32 c-4 -10 -8 -29 -8
-43 -1 -18 -7 -26 -23 -28 -25 -4 -29 8 -12 41 25 48 63 74 43 30z m-784 -29
c0 -8 -4 -14 -10 -14 -5 0 -10 9 -10 21 0 11 5 17 10 14 6 -3 10 -13 10 -21z
m117 -111 c3 -7 -4 -9 -16 -6 -12 3 -18 9 -15 15 7 11 26 6 31 -9z m-1141 -14
c3 -5 1 -9 -5 -9 -17 0 -41 12 -41 20 0 10 38 1 46 -11z m1181 5 c-3 -3 -12
-4 -19 -1 -8 3 -5 6 6 6 11 1 17 -2 13 -5z m8 -63 c39 -10 40 -12 40 -54 l0
-44 -50 5 c-62 6 -70 12 -84 65 -7 23 -14 47 -17 54 -4 9 5 8 33 -2 21 -8 56
-19 78 -24z m679 -206 c57 -27 105 -86 131 -161 24 -71 24 -68 -1 -179 -9 -39
-20 -53 -63 -75 -20 -10 -64 -42 -97 -71 -34 -30 -101 -88 -150 -130 -112 -97
-261 -240 -266 -257 -2 -10 -18 -10 -80 -1 -75 12 -76 13 -83 45 -4 24 -30 58
-90 119 -94 96 -165 195 -165 230 0 12 -10 35 -22 50 l-22 28 35 29 c18 16 66
48 104 71 39 23 92 57 120 74 29 19 62 33 80 33 29 0 90 35 105 60 14 23 118
82 170 96 30 9 73 22 95 29 78 28 154 31 199 10z m558 -65 c51 -8 118 -42 118
-61 0 -4 12 -22 28 -40 25 -30 27 -39 26 -118 -1 -104 -24 -158 -106 -244 -52
-55 -53 -56 -103 -51 -68 5 -275 40 -327 55 -47 13 -88 44 -88 66 0 7 21 26
46 41 46 27 180 158 252 245 21 27 45 66 52 88 10 30 17 38 29 34 9 -4 42 -10
73 -15z m-1507 -415 c0 -27 -5 -47 -12 -50 -9 -3 -13 10 -13 45 0 33 4 50 13
50 8 0 12 -16 12 -45z m2025 -34 c0 -6 -4 -13 -10 -16 -5 -3 -10 1 -10 9 0 9
5 16 10 16 6 0 10 -4 10 -9z m-2745 -141 c3 -5 -1 -10 -10 -10 -9 0 -13 5 -10
10 3 6 8 10 10 10 2 0 7 -4 10 -10z m885 -25 c10 -12 10 -15 -4 -15 -9 0 -16
7 -16 15 0 8 2 15 4 15 2 0 9 -7 16 -15z m2170 -20 c-6 -15 -13 -25 -16 -23
-2 3 1 17 7 32 16 34 23 27 9 -9z m-3222 -20 c-2 -24 -17 -33 -31 -19 -8 8 11
44 23 44 5 0 9 -11 8 -25z m390 -24 c3 -8 -1 -12 -9 -9 -7 2 -15 10 -17 17 -3
8 1 12 9 9 7 -2 15 -10 17 -17z m106 -87 c3 -9 6 -23 6 -32 -1 -15 -3 -14 -15
2 -17 22 -20 46 -6 46 5 0 12 -7 15 -16z m694 -39 c0 -25 -4 -45 -9 -45 -5 0
-9 20 -9 45 0 25 4 45 9 45 5 0 9 -20 9 -45z m71 -39 c9 -11 7 -15 -9 -19 -15
-4 -20 0 -20 14 0 22 13 25 29 5z m76 -35 c3 -5 1 -12 -5 -16 -5 -3 -10 1 -10
9 0 18 6 21 15 7z m-5 -88 c0 -5 -5 -15 -10 -23 -8 -12 -10 -11 -10 8 0 12 5
22 10 22 6 0 10 -3 10 -7z m-305 -62 c3 -5 1 -12 -5 -16 -5 -3 -10 1 -10 9 0
18 6 21 15 7z m80 -43 c-4 -13 -13 -30 -21 -38 -12 -12 -14 -12 -14 4 0 23 18
56 31 56 6 0 8 -9 4 -22z m-243 -134 c-7 -36 -22 -39 -22 -5 0 22 4 31 13 28
6 -2 10 -13 9 -23z m-442 -69 c0 -14 -4 -25 -10 -25 -5 0 -10 11 -10 25 0 14
5 25 10 25 6 0 10 -11 10 -25z m-218 -27 c53 -71 49 -80 -6 -13 -21 25 -33 45
-28 45 5 0 21 -15 34 -32z m918 22 c0 -5 -5 -10 -11 -10 -5 0 -7 5 -4 10 3 6
8 10 11 10 2 0 4 -4 4 -10z m-263 -216 c-3 -3 -12 -4 -19 -1 -8 3 -5 6 6 6 11
1 17 -2 13 -5z m-127 -53 c0 -6 -21 -13 -47 -16 -27 -3 -56 -8 -65 -10 -10 -2
-21 1 -24 6 -3 5 10 9 28 9 18 0 40 5 48 10 19 12 60 13 60 1z"/>
<path d="M5085 8284 c-39 -7 -84 -13 -102 -13 -18 -1 -73 -19 -122 -41 -73
-32 -113 -42 -208 -54 -203 -27 -296 -56 -438 -140 -118 -69 -225 -194 -225
-263 0 -46 108 -160 177 -186 26 -10 70 -27 97 -38 26 -10 78 -24 115 -30 36
-6 77 -17 91 -24 39 -20 253 -48 370 -49 126 -1 459 10 550 19 36 4 92 13 125
20 33 7 89 17 125 20 126 13 437 116 584 193 149 79 266 193 266 259 0 22 -73
101 -138 148 -31 24 -65 53 -75 65 -15 18 -26 21 -71 18 -39 -2 -59 2 -81 17
-22 15 -48 20 -100 21 -38 1 -101 11 -140 22 -38 11 -96 24 -127 27 -49 5 -62
3 -87 -14 l-29 -21 -56 25 c-73 32 -149 41 -239 26 -47 -8 -92 -9 -132 -4 -40
6 -84 5 -130 -3z m125 -24 c0 -5 -7 -10 -15 -10 -8 0 -15 5 -15 10 0 6 7 10
15 10 8 0 15 -4 15 -10z m586 -21 c4 -8 -6 -10 -35 -6 -56 6 -64 17 -13 17 22
0 44 -5 48 -11z m-816 -9 c0 -5 -9 -10 -20 -10 -11 0 -20 5 -20 10 0 6 9 10
20 10 11 0 20 -4 20 -10z m404 -8 c5 -9 -56 -42 -78 -42 -7 0 -21 -9 -30 -19
-24 -27 -56 -34 -56 -12 0 9 -6 23 -12 29 -21 21 9 32 81 29 43 -1 66 3 69 11
4 14 18 16 26 4z m517 -12 l24 -19 -35 9 c-19 6 -36 10 -38 10 -2 0 0 5 3 10
9 15 20 12 46 -10z m-829 -12 c-20 -20 -13 -46 16 -61 23 -11 32 -11 45 -2 10
7 17 18 17 25 0 10 3 10 15 0 22 -19 19 -43 -5 -37 -11 3 -23 1 -26 -4 -10
-16 -39 -10 -74 16 -19 14 -28 25 -21 25 11 0 11 3 0 16 -10 13 -10 17 2 25 8
5 21 9 29 9 11 0 11 -3 2 -12z m431 -8 c26 0 21 -35 -8 -48 -14 -6 -25 -17
-25 -23 0 -6 -7 -8 -16 -5 -12 4 -15 2 -10 -9 6 -17 -9 -21 -19 -5 -4 6 -10 8
-15 5 -4 -3 -13 2 -20 10 -10 12 -7 15 13 20 27 7 68 45 49 45 -7 0 -12 5 -12
11 0 7 9 9 23 5 12 -3 30 -6 40 -6z m-90 -15 c8 -18 -13 -32 -23 -15 -10 17
-30 4 -30 -21 0 -15 -7 -19 -36 -19 -47 0 -41 18 16 48 52 26 66 27 73 7z
m-498 -5 c3 -6 -4 -10 -17 -10 -18 0 -20 2 -8 10 19 12 18 12 25 0z m77 -12
c-5 -5 -22 -6 -38 -2 -25 6 -26 8 -9 14 26 9 59 0 47 -12z m129 7 c-1 -15 -24
-12 -29 3 -3 9 2 13 12 10 10 -1 17 -7 17 -13z m-419 -37 c-7 -7 -12 -8 -12
-2 0 14 12 26 19 19 2 -3 -1 -11 -7 -17z m1333 1 c27 -7 57 -19 65 -27 13 -13
13 -14 -3 -8 -82 28 -93 7 -14 -28 28 -13 59 -32 67 -42 66 -83 76 -103 39
-83 -12 6 -29 9 -38 6 -10 -2 -23 4 -29 14 -16 26 -81 57 -144 70 -56 11 -71
16 -128 43 l-35 16 45 -4 c25 -3 64 -8 88 -12 61 -10 53 11 -12 30 -30 9 -73
16 -97 16 -45 0 -44 15 1 22 40 7 140 0 195 -13z m-1215 -1 c17 -11 22 -10 30
1 6 11 12 12 22 4 8 -6 21 -7 33 -2 35 13 88 9 133 -11 23 -10 42 -22 42 -25
0 -4 -62 -6 -137 -4 -94 2 -150 -1 -175 -10 -62 -21 -80 6 -25 39 37 23 50 24
77 8z m-130 -28 c0 -5 -4 -10 -9 -10 -6 0 -13 5 -16 10 -3 6 1 10 9 10 9 0 16
-4 16 -10z m546 -5 c-19 -15 -19 -15 3 -39 13 -13 36 -30 52 -36 16 -7 29 -17
29 -22 0 -17 -31 -20 -48 -5 -23 19 -81 27 -112 14 -14 -6 -37 -21 -51 -34
-24 -22 -27 -23 -58 -7 -17 9 -38 13 -46 10 -8 -3 -17 -1 -20 4 -12 19 39 90
64 90 9 0 4 -9 -13 -25 -31 -29 -33 -41 -6 -55 28 -15 59 -3 70 26 10 27 30
33 30 9 0 -19 14 -19 29 -1 9 10 8 16 -4 26 -8 7 -15 21 -15 31 0 15 5 18 23
14 12 -3 34 -2 47 4 36 14 48 12 26 -4z m146 -34 c18 -16 30 -32 26 -36 -10
-11 -88 27 -88 43 0 7 -4 11 -9 7 -5 -3 -12 -1 -16 5 -15 24 56 9 87 -19z
m453 -17 c50 -19 108 -34 129 -34 45 0 120 -39 137 -73 33 -61 89 -109 89 -76
0 5 5 7 12 3 16 -10 -19 -34 -49 -34 -13 0 -27 -8 -30 -17 -10 -26 -35 -42
-65 -43 -16 0 -28 -5 -28 -10 0 -23 -37 10 -60 52 -28 55 -70 84 -185 132
-111 47 -156 57 -267 59 -67 2 -84 5 -76 14 7 9 27 11 63 7 34 -4 55 -3 59 5
4 6 2 11 -5 11 -7 0 -4 8 8 19 43 40 137 35 268 -15z m-1115 15 c30 -11 59
-25 65 -30 5 -5 17 -9 27 -9 36 0 17 -19 -34 -34 -54 -16 -124 -52 -83 -42 26
6 82 25 124 43 29 12 36 12 51 -2 18 -16 40 -20 40 -7 0 14 -34 37 -82 56 -53
19 -60 31 -25 40 37 10 64 7 77 -9 17 -20 44 -20 36 0 -5 13 2 15 42 11 26 -2
49 -5 52 -5 3 -1 -4 -10 -16 -19 -28 -23 -47 -60 -40 -78 4 -9 -9 -18 -43 -28
-64 -19 -129 -61 -143 -91 -6 -14 -20 -25 -31 -25 -10 0 -33 -10 -49 -22 l-31
-21 -18 24 -19 24 4 -56 4 -57 -51 -5 c-42 -4 -56 -10 -84 -41 -18 -20 -37
-36 -41 -36 -4 0 -18 9 -32 20 -14 11 -37 20 -51 20 -14 0 -43 11 -63 25 -33
22 -44 25 -87 19 -43 -6 -53 -4 -74 16 -14 13 -25 34 -25 48 0 23 1 23 78 20
42 -2 85 -8 95 -12 11 -5 17 -4 17 3 0 19 -47 31 -121 31 -39 0 -69 4 -69 10
0 5 27 24 61 42 33 18 75 41 92 51 45 26 105 18 207 -28 47 -21 89 -42 94 -47
6 -4 -22 -22 -62 -40 -40 -18 -72 -37 -72 -41 0 -11 32 0 109 37 62 30 89 56
58 56 -8 0 -40 14 -71 30 -58 31 -117 53 -173 65 -47 9 -41 21 10 18 23 -1 31
1 17 3 -51 10 -54 13 -30 34 24 21 79 39 120 41 14 0 34 4 45 9 38 16 138 11
195 -11z m385 1 c3 -5 1 -10 -4 -10 -6 0 -11 5 -11 10 0 6 2 10 4 10 3 0 8 -4
11 -10z m1130 -45 c34 -33 55 -68 55 -92 0 -36 -13 -27 -47 35 -17 31 -41 67
-52 79 -12 12 -21 25 -21 29 0 7 25 -13 65 -51z m-1895 35 c0 -5 -7 -10 -15
-10 -8 0 -15 5 -15 10 0 6 7 10 15 10 8 0 15 -4 15 -10z m730 -19 c0 -12 -20
-25 -27 -18 -7 7 6 27 18 27 5 0 9 -4 9 -9z m1257 -27 c-7 -7 -37 7 -37 17 0
6 9 5 21 -1 11 -7 19 -14 16 -16z m-762 -26 c74 -8 107 -19 191 -59 98 -47
164 -91 164 -110 0 -5 9 -18 20 -29 18 -18 28 -50 15 -50 -2 0 -15 11 -29 25
-25 25 -46 32 -46 16 0 -5 13 -22 29 -37 27 -25 28 -29 13 -40 -33 -23 -56
-21 -73 6 -17 27 -65 57 -75 47 -4 -3 3 -21 15 -40 11 -19 21 -44 21 -56 0
-19 -3 -20 -20 -11 -11 6 -20 19 -20 30 0 36 -53 82 -139 122 -104 48 -138 55
-363 83 -75 10 -56 21 27 17 51 -3 75 -1 75 7 0 6 -19 11 -44 11 -25 0 -47 4
-50 8 -2 4 16 24 42 44 52 41 45 40 247 16z m873 -31 c4 -41 -6 -47 -32 -18
-14 16 -15 23 -6 41 16 30 34 20 38 -23z m-2133 23 c-3 -5 -16 -10 -28 -10
-18 0 -19 2 -7 10 20 13 43 13 35 0z m720 -30 c3 -5 -1 -10 -10 -10 -9 0 -13
5 -10 10 3 6 8 10 10 10 2 0 7 -4 10 -10z m115 6 c0 -3 -4 -8 -10 -11 -5 -3
-10 -1 -10 4 0 6 5 11 10 11 6 0 10 -2 10 -4z m-980 -31 c0 -8 -4 -15 -10 -15
-5 0 -10 7 -10 15 0 8 5 15 10 15 6 0 10 -7 10 -15z m2012 -2 c18 -16 24 -33
11 -33 -10 1 -46 50 -37 50 4 0 16 -7 26 -17z m212 -9 c27 -24 27 -26 11 -43
-9 -11 -24 -21 -34 -24 -16 -4 -16 0 -7 35 8 32 8 41 -4 48 -8 6 -10 10 -5 10
6 -1 23 -12 39 -26z m-1194 -14 c0 -11 -42 -30 -66 -30 -8 0 -14 7 -14 16 0
12 6 15 24 10 14 -3 28 -2 31 4 8 13 25 13 25 0z m-1070 -4 c0 -2 -7 -7 -16
-10 -8 -3 -12 -2 -9 4 6 10 25 14 25 6z m940 -30 c0 -15 -18 -31 -26 -23 -7 7
7 37 17 37 5 0 9 -6 9 -14z m295 -16 c28 -5 75 -12 105 -16 32 -4 78 -20 113
-39 l58 -32 -124 -62 c-81 -41 -144 -79 -178 -112 -30 -27 -58 -49 -64 -49 -5
0 -21 -3 -33 -7 l-24 -6 22 42 c15 31 39 54 88 84 73 46 64 65 -13 26 -48 -24
-80 -55 -119 -117 -31 -49 -47 -55 -114 -42 -29 5 -58 7 -66 4 -37 -14 -19 19
42 78 73 69 172 119 265 132 26 4 47 11 47 17 0 12 -105 12 -128 0 -9 -5 -47
-24 -85 -42 -50 -25 -84 -52 -134 -106 -55 -61 -71 -73 -97 -73 -46 0 -64 15
-49 39 22 35 -7 37 -34 3 -14 -19 -29 -29 -38 -25 -24 9 -17 30 18 54 17 13
55 45 82 72 90 89 117 105 174 99 27 -2 62 -1 77 2 42 11 10 26 -55 26 -68 0
-59 13 31 45 65 23 119 25 233 5z m932 14 c-3 -3 -12 -4 -19 -1 -8 3 -5 6 6 6
11 1 17 -2 13 -5z m-1412 -15 c10 -15 2 -19 -24 -12 -17 4 -19 8 -9 14 18 12
26 11 33 -2z m80 -9 c3 -5 -1 -10 -10 -10 -9 0 -13 5 -10 10 3 6 8 10 10 10 2
0 7 -4 10 -10z m-908 -57 c-3 -10 -5 -4 -5 12 0 17 2 24 5 18 2 -7 2 -21 0
-30z m893 6 c0 -11 -27 -12 -34 0 -3 4 -3 11 0 14 8 8 34 -3 34 -14z m1310
-19 c0 -5 -5 -10 -11 -10 -5 0 -7 5 -4 10 3 6 8 10 11 10 2 0 4 -4 4 -10z
m-1580 -15 c0 -8 -4 -15 -10 -15 -5 0 -10 7 -10 15 0 8 5 15 10 15 6 0 10 -7
10 -15z m130 -5 c0 -5 -10 -10 -22 -10 -19 0 -20 2 -8 10 19 13 30 13 30 0z
m99 -26 c5 -4 -19 -34 -28 -34 -3 0 -14 12 -24 25 l-18 25 33 -7 c18 -3 35 -7
37 -9z m806 -11 c43 -50 35 -66 -48 -91 -40 -12 -95 -22 -121 -22 -26 0 -72
-7 -102 -16 -80 -23 -86 -13 -19 33 72 48 132 80 200 104 65 23 62 23 90 -8z
m-1060 -13 c3 -5 -1 -10 -10 -10 -9 0 -13 5 -10 10 3 6 8 10 10 10 2 0 7 -4
10 -10z m183 -42 c-2 -6 -15 -18 -28 -27 -21 -14 -23 -14 -16 -1 16 27 28 40
38 40 5 0 8 -5 6 -12z m-483 -88 c3 -6 -1 -7 -9 -4 -18 7 -21 14 -7 14 6 0 13
-4 16 -10z m1365 -14 c0 -2 -9 -6 -20 -9 -11 -3 -18 -1 -14 4 5 9 34 13 34 5z
m-885 -66 c16 -7 13 -9 -17 -9 -21 -1 -38 4 -38 9 0 12 27 12 55 0z"/>
<path d="M4550 7966 c0 -2 20 -11 45 -19 53 -19 60 -12 10 9 -34 14 -55 18
-55 10z"/>
<path d="M4660 7850 c0 -22 4 -40 9 -40 11 0 21 49 14 67 -10 27 -23 12 -23
-27z"/>
<path d="M4414 7726 c-3 -8 0 -24 6 -36 17 -31 34 -11 21 23 -12 30 -19 34
-27 13z"/>
<path d="M5532 7929 c2 -7 38 -21 79 -30 98 -23 168 -46 196 -64 27 -18 43
-19 43 -2 0 26 -120 76 -220 91 -25 4 -58 10 -74 13 -21 4 -27 2 -24 -8z"/>
<path d="M6140 7300 c-36 -28 -157 -77 -212 -84 -46 -7 -78 -26 -78 -47 0 -6
8 -8 18 -5 9 3 44 10 77 15 58 9 114 29 203 73 31 16 42 27 42 45 0 28 -17 29
-50 3z"/>
<path d="M5566 7209 c-54 -19 -107 -49 -131 -75 -5 -6 -37 -26 -70 -44 -70
-39 -130 -85 -199 -152 -57 -56 -80 -60 -95 -18 -13 38 -28 38 -36 1 -12 -55
27 -90 83 -76 15 4 50 24 79 46 29 21 54 39 56 39 2 0 7 -57 11 -127 6 -110
11 -134 32 -170 27 -47 85 -99 121 -107 58 -15 184 76 196 142 l5 27 -15 -22
c-29 -44 -105 -25 -128 30 -59 143 12 386 87 300 35 -41 65 -121 32 -89 -25
25 -58 20 -71 -11 -21 -52 -25 -119 -9 -157 12 -29 20 -36 43 -36 21 1 34 10
51 38 21 32 23 46 20 117 -4 98 -39 179 -93 216 -19 13 -35 26 -35 29 0 14 97
63 134 67 41 5 44 3 81 -41 55 -67 84 -44 32 26 -46 63 -97 76 -181 47z m-87
-138 l24 -18 -25 -17 c-39 -25 -50 -62 -54 -176 -4 -83 -1 -115 13 -154 18
-51 56 -83 98 -86 18 -1 17 -3 -8 -25 -15 -13 -45 -30 -66 -36 -35 -10 -43 -9
-68 9 -42 30 -91 119 -101 182 -5 33 -4 90 3 144 l10 89 70 53 c39 30 72 54
75 54 3 0 16 -9 29 -19z m105 -199 c10 -20 12 -40 6 -71 -10 -54 -23 -69 -46
-50 -13 11 -15 24 -10 65 10 90 24 105 50 56z"/>
<path d="M4438 7198 c-41 -24 -64 -59 -54 -83 5 -15 13 -11 51 24 24 22 50 41
58 41 7 0 33 -20 57 -45 l44 -45 -36 -37 c-53 -56 -68 -96 -68 -176 0 -106 19
-184 62 -250 51 -80 76 -98 142 -100 69 -1 99 18 120 79 21 63 20 124 -4 219
-25 100 -26 100 9 74 46 -34 61 -21 61 55 0 36 -4 67 -9 71 -13 7 -25 -57 -16
-84 3 -12 2 -21 -3 -21 -10 0 -135 125 -140 139 -2 6 64 8 160 6 229 -4 373 6
373 25 0 13 -25 15 -180 12 -99 -2 -235 1 -302 7 l-122 10 -49 50 c-56 59 -91
65 -154 29z m206 -165 l34 -26 -18 -42 c-39 -91 -36 -186 12 -300 30 -74 44
-87 87 -79 34 7 35 6 21 -11 -12 -14 -24 -16 -75 -11 -56 5 -63 9 -103 53 -70
77 -71 80 -78 204 -6 98 -4 120 11 149 15 31 63 90 72 90 2 0 19 -12 37 -27z
m90 -74 c32 -38 32 -43 2 -63 -66 -43 -31 -217 42 -203 19 4 22 0 22 -28 0
-24 -6 -34 -25 -43 -14 -7 -30 -12 -35 -12 -26 0 -70 153 -70 241 0 62 17 139
31 139 4 0 19 -14 33 -31z m35 -110 c14 -40 14 -116 1 -124 -15 -10 -41 59
-36 97 3 18 5 39 5 46 2 23 19 12 30 -19z"/>
<path d="M4893 6582 c-16 -15 -42 -37 -56 -50 -23 -18 -26 -26 -17 -42 15 -29
81 -70 110 -70 l25 1 -23 19 c-13 11 -36 29 -50 40 l-27 20 26 23 c33 29 61
75 50 81 -5 3 -22 -7 -38 -22z"/>
<path d="M5175 6425 c-27 -8 -85 -32 -128 -54 -43 -23 -87 -41 -98 -41 -10 0
-19 -4 -19 -9 0 -12 48 -23 70 -16 10 3 46 -11 88 -35 115 -64 181 -70 275
-23 60 30 51 112 -20 166 -41 31 -86 34 -168 12z m160 -61 c17 -11 25 -26 25
-45 0 -38 -32 -51 -116 -50 -48 0 -74 7 -123 32 -34 18 -58 35 -54 39 39 37
223 53 268 24z"/>
<path d="M1357 4754 c-14 -14 -7 -25 13 -22 12 2 21 8 21 13 0 12 -24 18 -34
9z"/>
<path d="M4965 3433 c-35 -9 -75 -44 -89 -78 -15 -35 -50 -172 -61 -238 -11
-68 12 -142 60 -197 47 -53 50 -63 63 -215 7 -76 1 -380 -12 -623 l-6 -113 28
-29 c16 -15 54 -36 85 -46 55 -17 61 -17 151 0 99 19 125 35 142 86 11 38 6
131 -10 170 -8 19 -20 62 -27 95 -7 33 -20 78 -30 100 -19 46 -35 183 -45 397
l-6 148 27 35 c14 20 40 66 57 103 24 53 30 79 29 129 -1 68 -16 154 -30 181
-17 31 -55 60 -91 67 -19 4 -47 14 -62 21 -26 13 -130 17 -173 7z m217 -100
c41 -47 50 -83 46 -188 -3 -98 -5 -103 -45 -171 -71 -118 -73 -142 -39 -384 9
-63 21 -156 26 -205 5 -50 23 -132 40 -182 32 -98 37 -147 19 -187 -14 -30
-24 -34 -94 -42 -68 -8 -121 2 -130 24 -9 24 -7 246 5 432 14 211 18 426 10
440 -4 7 -24 31 -45 54 -82 93 -107 257 -55 364 11 22 28 46 37 51 10 6 61 11
114 11 79 0 99 -3 111 -17z m95 -175 c-2 -13 -4 -5 -4 17 -1 22 1 32 4 23 2
-10 2 -28 0 -40z m3 -1162 c0 -3 -4 -8 -10 -11 -5 -3 -10 -1 -10 4 0 6 5 11
10 11 6 0 10 -2 10 -4z"/>
<path d="M5116 3217 c3 -10 9 -15 12 -12 3 3 0 11 -7 18 -10 9 -11 8 -5 -6z"/>
<path d="M3995 3347 c-67 -37 -69 -41 -42 -137 8 -30 18 -82 22 -115 4 -33 15
-107 26 -165 10 -58 19 -146 19 -196 0 -82 -3 -98 -30 -150 -38 -75 -46 -84
-74 -84 -18 0 -25 8 -35 40 -18 62 -55 74 -125 40 -23 -10 -58 -26 -78 -34
-21 -8 -38 -20 -38 -27 0 -7 14 -41 30 -75 31 -63 88 -121 175 -177 70 -44
183 -52 243 -16 87 53 131 135 136 256 2 43 7 130 11 193 7 116 0 180 -30 289
-8 30 -26 110 -40 178 -27 132 -48 188 -74 197 -9 3 -20 8 -26 11 -5 2 -37
-11 -70 -28z m79 -43 c9 -24 7 -28 -9 -14 -17 14 -20 30 -6 30 5 0 12 -7 15
-16z m-53 -16 c0 -1 4 -20 8 -40 5 -21 5 -38 1 -38 -15 0 -39 74 -27 82 10 6
19 5 18 -4z m39 -119 c0 -18 -18 -9 -23 12 -4 16 -3 18 9 8 8 -6 14 -15 14
-20z m30 -179 c0 -5 -4 -10 -10 -10 -5 0 -10 5 -10 10 0 6 5 10 10 10 6 0 10
-4 10 -10z m30 -154 c0 -3 -4 -8 -10 -11 -5 -3 -10 -1 -10 4 0 6 5 11 10 11 6
0 10 -2 10 -4z m0 -56 c0 -5 -4 -10 -10 -10 -5 0 -10 5 -10 10 0 6 5 10 10 10
6 0 10 -4 10 -10z m-10 -74 c0 -8 -4 -18 -10 -21 -5 -3 -10 3 -10 14 0 12 5
21 10 21 6 0 10 -6 10 -14z m-360 -205 c0 -12 -20 -25 -27 -18 -7 7 6 27 18
27 5 0 9 -4 9 -9z m90 -34 c0 -4 -7 -2 -15 7 -8 8 -15 21 -15 28 1 14 30 -20
30 -35z"/>
<path d="M4560 3299 c-86 -58 -97 -82 -66 -145 20 -40 46 -270 57 -499 10
-198 6 -335 -13 -395 -10 -35 -63 -100 -81 -100 -16 0 -82 73 -107 117 -25 45
-46 56 -70 38 -8 -6 -50 -24 -93 -40 -43 -15 -81 -34 -84 -43 -9 -22 8 -59 71
-153 72 -109 130 -169 192 -200 43 -21 63 -24 159 -24 107 0 111 1 155 32 116
81 156 175 191 443 24 178 6 397 -43 535 -6 17 -14 63 -18 102 -6 52 -20 98
-49 161 -23 49 -41 99 -41 111 0 30 -61 91 -91 91 -13 0 -44 -14 -69 -31z
m103 -109 c15 -39 15 -39 -4 -30 -10 6 -19 17 -19 25 0 7 -3 20 -6 29 -3 9 -2
16 3 16 6 0 17 -18 26 -40z m4 -417 c1 -43 4 -97 7 -121 2 -23 0 -45 -4 -47
-6 -4 -16 51 -25 140 -1 6 -5 31 -9 57 -8 53 -1 77 17 59 6 -6 12 -46 14 -88z
m12 -294 c1 -46 -2 -60 -11 -57 -7 3 -13 16 -12 29 2 80 5 100 12 95 5 -3 10
-33 11 -67z m-5 -132 c-4 -23 -11 -48 -16 -54 -16 -20 -29 -5 -22 25 18 83 50
107 38 29z m-84 -198 c0 -23 -41 -77 -63 -83 -70 -19 -97 6 -35 33 24 10 52
28 63 39 23 24 35 27 35 11z m-241 -58 c10 -32 8 -51 -8 -51 -15 0 -31 51 -25
76 8 30 17 22 33 -25z m351 -19 c0 -5 -9 -17 -20 -27 -11 -10 -20 -23 -20 -29
0 -18 -67 -66 -92 -66 -20 0 -18 4 17 33 21 17 53 46 70 63 31 32 45 40 45 26z
m-214 -59 c-10 -10 -19 5 -10 18 6 11 8 11 12 0 2 -7 1 -15 -2 -18z m34 -53
c0 -5 -9 -10 -20 -10 -11 0 -20 5 -20 10 0 6 9 10 20 10 11 0 20 -4 20 -10z"/>
<path d="M6973 3294 c-50 -12 -74 -25 -117 -65 -79 -72 -90 -101 -82 -218 3
-53 10 -177 15 -276 9 -166 15 -233 26 -308 3 -17 1 -26 -5 -22 -6 3 -10 17
-10 31 0 13 -11 42 -25 64 -13 21 -38 85 -55 142 -27 89 -32 122 -35 239 -4
141 -15 188 -51 221 -25 22 -148 74 -196 83 -55 10 -204 -13 -275 -42 -60 -25
-68 -32 -64 -61 1 -7 -9 -46 -23 -86 -15 -41 -26 -83 -26 -93 0 -10 -7 -38
-15 -62 -18 -49 -10 -66 34 -83 41 -15 98 1 169 50 60 42 138 72 183 72 9 0
24 -11 33 -25 15 -23 15 -26 -13 -57 -23 -26 -43 -37 -92 -47 -35 -8 -75 -20
-89 -28 -14 -7 -34 -13 -45 -13 -38 0 -80 -37 -113 -98 -43 -81 -62 -144 -63
-217 -1 -54 -2 -57 -9 -25 -5 19 -11 82 -15 139 -7 109 -21 153 -54 171 -30
16 -145 12 -188 -6 -110 -46 -108 -45 -106 -99 3 -58 35 -95 82 -95 19 0 30
-6 33 -17 13 -50 -33 -73 -146 -73 l-86 0 -19 38 c-34 68 -44 141 -27 218 27
131 35 144 101 181 83 46 100 42 100 -22 0 -44 3 -50 27 -59 48 -17 159 49
194 115 24 47 18 118 -16 185 -42 84 -65 103 -157 125 -94 22 -135 23 -196 5
-68 -21 -103 -50 -132 -114 -14 -31 -37 -78 -51 -104 -14 -26 -31 -76 -39
-110 -8 -35 -19 -81 -26 -103 -15 -54 -31 -219 -26 -275 15 -175 162 -326 328
-338 79 -5 254 13 312 34 45 16 97 59 97 81 0 7 4 13 9 13 6 0 7 -15 4 -33
-14 -88 144 -144 235 -82 20 14 42 25 50 25 7 0 27 13 45 30 110 101 166 140
203 140 10 0 41 -25 70 -55 36 -38 60 -55 77 -55 34 0 72 48 81 99 6 41 26 58
26 23 0 -11 14 -38 30 -60 17 -23 30 -46 30 -50 0 -38 120 -64 199 -42 24 6
71 31 104 56 34 24 67 44 74 44 7 0 13 3 13 8 0 13 72 39 144 52 56 10 75 19
98 44 37 40 39 107 5 150 -33 41 -54 41 -336 -10 -46 -8 -86 -12 -90 -8 -7 7
-5 180 3 200 4 11 33 14 129 14 114 0 125 2 156 24 47 35 60 56 61 99 0 30 -7
45 -31 69 l-30 31 -102 -6 c-181 -10 -220 11 -161 88 39 52 70 64 180 70 130
8 137 10 151 41 16 35 6 77 -23 105 -23 22 -34 23 -172 25 -81 1 -163 4 -182
7 -19 3 -63 -1 -97 -9z m154 -52 c9 -6 7 -11 -7 -20 -20 -12 -36 -1 -25 18 7
12 16 12 32 2z m-227 -86 c0 -3 -4 -8 -10 -11 -5 -3 -10 -1 -10 4 0 6 5 11 10
11 6 0 10 -2 10 -4z m-1101 -47 c17 -6 31 -15 31 -20 0 -11 0 -11 -39 2 -17 6
-31 15 -31 20 0 11 0 11 39 -2z m-132 -11 c-2 -8 -17 -12 -36 -10 -17 1 -31
-2 -31 -6 0 -4 -16 -9 -35 -10 -39 -3 -42 0 -19 22 20 20 128 23 121 4z m648
3 c-14 -12 -75 -22 -75 -11 0 10 23 17 60 19 14 1 20 -3 15 -8z m775 5 c0 -3
-4 -8 -10 -11 -5 -3 -10 -1 -10 4 0 6 5 11 10 11 6 0 10 -2 10 -4z m-586 -49
c-10 -28 -24 -19 -24 15 0 29 2 31 15 17 9 -9 13 -23 9 -32z m-345 -32 c-34
-50 -44 -57 -34 -22 11 35 34 67 50 67 10 0 5 -13 -16 -45z m-308 13 c10 -13
18 -34 18 -48 0 -24 0 -24 -11 -5 -7 11 -22 28 -35 38 -13 10 -21 23 -18 28
10 15 26 10 46 -13z m-122 -55 c0 -19 -59 -72 -59 -55 0 10 48 72 56 72 2 0 4
-8 3 -17z m817 -19 c-7 -42 -23 -74 -36 -74 -17 0 -11 43 10 78 25 41 33 41
26 -4z m-76 16 c0 -5 -4 -10 -10 -10 -5 0 -10 5 -10 10 0 6 5 10 10 10 6 0 10
-4 10 -10z m-730 -70 c0 -5 -4 -10 -9 -10 -6 0 -13 5 -16 10 -3 6 1 10 9 10 9
0 16 -4 16 -10z m-120 -10 c0 -11 -52 -40 -72 -40 -16 0 42 49 60 50 6 0 12
-4 12 -10z m620 -10 c0 -12 -60 -44 -68 -36 -9 9 31 45 51 45 9 1 17 -3 17 -9z
m680 -10 c0 -5 -2 -10 -4 -10 -3 0 -8 5 -11 10 -3 6 -1 10 4 10 6 0 11 -4 11
-10z m180 6 c0 -3 -4 -8 -10 -11 -5 -3 -10 -1 -10 4 0 6 5 11 10 11 6 0 10 -2
10 -4z m-1682 -38 c-6 -18 -13 -40 -16 -48 -3 -10 -6 -11 -9 -3 -4 11 22 83
31 83 2 0 -1 -15 -6 -32z m1104 -70 c-7 -7 -12 -8 -12 -2 0 14 12 26 19 19 2
-3 -1 -11 -7 -17z m-277 -128 c-3 -5 -13 -10 -21 -10 -8 0 -14 5 -14 10 0 6 9
10 21 10 11 0 17 -4 14 -10z m-301 -25 c12 -33 18 -105 8 -105 -16 0 -30 30
-24 52 3 13 -3 21 -27 29 -36 13 -40 26 -8 31 38 6 46 5 51 -7z m556 -5 c0 -5
-6 -10 -14 -10 -8 0 -18 5 -21 10 -3 6 3 10 14 10 12 0 21 -4 21 -10z m-89
-40 c20 -11 27 -40 9 -40 -5 0 -35 -22 -65 -50 -30 -27 -60 -50 -65 -50 -13 0
-13 41 0 75 13 34 58 75 82 75 11 0 28 -5 39 -10z m118 -4 c9 -11 9 -16 0 -21
-10 -7 -28 10 -29 28 0 12 17 8 29 -7z m140 -22 c10 -22 9 -25 -6 -22 -10 2
-19 13 -21 26 -5 30 12 28 27 -4z m-905 1 c4 -10 -1 -15 -14 -15 -11 0 -20 7
-20 15 0 8 6 15 14 15 8 0 16 -7 20 -15z m1700 -72 c2 -22 -2 -34 -12 -38 -12
-4 -13 1 -9 24 4 18 2 31 -5 33 -7 3 -8 10 -4 17 12 18 25 1 30 -36z m-2004
-9 c0 -19 -4 -34 -10 -34 -5 0 -10 18 -10 41 0 24 4 38 10 34 6 -3 10 -22 10
-41z m449 10 c-6 -8 -22 -14 -36 -14 -21 0 -22 3 -13 20 6 11 15 18 21 15 5
-4 9 -1 9 6 0 8 4 8 15 -1 12 -10 13 -16 4 -26z m326 27 c3 -5 1 -12 -5 -16
-5 -3 -10 1 -10 9 0 18 6 21 15 7z m824 -56 c0 -15 -35 -55 -48 -55 -15 0 -14
7 5 57 15 39 18 41 30 26 7 -10 13 -22 13 -28z m-832 -77 c-3 -8 -6 -5 -6 6
-1 11 2 17 5 13 3 -3 4 -12 1 -19z m423 12 c0 -5 -4 -10 -10 -10 -5 0 -10 5
-10 10 0 6 5 10 10 10 6 0 10 -4 10 -10z m635 0 c-3 -5 -10 -10 -16 -10 -5 0
-9 5 -9 10 0 6 7 10 16 10 8 0 12 -4 9 -10z m-315 -51 c-7 -11 -14 -18 -17
-15 -8 8 5 36 17 36 7 0 7 -6 0 -21z m-1185 -30 c-10 -15 -65 -40 -75 -34 -19
12 -11 41 12 42 13 1 24 7 26 12 3 8 10 8 23 0 11 -5 17 -14 14 -20z m165 2
c0 -23 -37 -71 -55 -71 -17 0 -6 37 22 75 20 25 33 24 33 -4z m-350 9 c0 -5
-2 -10 -4 -10 -3 0 -8 5 -11 10 -3 6 -1 10 4 10 6 0 11 -4 11 -10z m74 -21
c-7 -11 -54 -12 -54 -1 0 15 10 19 35 14 14 -2 22 -8 19 -13z m-174 -46 c0
-13 -3 -13 -15 -3 -8 7 -15 16 -15 21 0 5 7 6 15 3 8 -4 15 -13 15 -21z m470
17 c0 -5 -5 -10 -11 -10 -5 0 -7 5 -4 10 3 6 8 10 11 10 2 0 4 -4 4 -10z
m-326 -46 c26 -10 18 -24 -14 -24 -29 0 -38 9 -23 23 8 9 17 9 37 1z"/>
<path d="M6740 1940 c-35 -8 -74 -46 -90 -87 -13 -31 -14 -81 -5 -208 l8 -110
-20 25 c-32 39 -63 103 -63 127 0 73 -67 174 -126 189 -13 3 -24 10 -24 14 0
15 -62 29 -104 24 -57 -8 -71 -21 -106 -97 -31 -70 -40 -142 -22 -188 7 -17 7
-61 2 -128 -5 -57 -10 -212 -11 -347 -1 -201 2 -252 15 -291 26 -76 56 -103
115 -103 40 0 106 46 127 89 17 35 43 183 45 256 1 22 4 51 8 65 7 23 9 21 25
-25 20 -60 60 -119 141 -210 91 -104 102 -112 155 -125 69 -17 125 -5 168 35
32 29 37 40 48 116 13 92 11 148 -10 314 -8 61 -20 153 -26 205 -5 52 -20 167
-32 254 -27 195 -35 208 -124 212 -32 2 -75 -1 -94 -6z m134 -56 c25 -24 20
-37 -11 -30 -16 4 -45 9 -66 13 -30 4 -35 8 -26 19 16 19 84 18 103 -2z m-129
-44 c3 -5 2 -10 -4 -10 -5 0 -13 5 -16 10 -3 6 -2 10 4 10 5 0 13 -4 16 -10z
m129 -31 c-8 -13 -24 -1 -24 18 0 13 3 13 15 3 8 -7 12 -16 9 -21z m65 -391
c1 -39 -12 -51 -23 -22 -8 22 -8 79 1 88 10 10 21 -23 22 -66z m-309 8 c0 -28
-17 -8 -25 29 -7 29 -7 29 8 10 9 -11 17 -29 17 -39z m-232 -75 c-3 -19 0 -27
8 -24 6 2 14 -9 18 -28 9 -46 7 -69 -5 -69 -6 0 -9 10 -6 23 3 12 1 31 -3 42
-6 14 -9 0 -10 -45 -2 -63 -2 -64 -15 -35 -14 31 -20 146 -8 158 15 16 25 5
21 -22z m252 8 c0 -6 -4 -7 -10 -4 -5 3 -10 11 -10 16 0 6 5 7 10 4 6 -3 10
-11 10 -16z m306 -165 c-5 -13 -9 -15 -18 -6 -13 13 -14 74 -2 94 11 17 29
-64 20 -88z m-336 -51 c16 -32 38 -69 47 -82 14 -19 15 -23 3 -19 -18 5 -86
103 -95 136 -12 43 15 22 45 -35z m150 -83 c0 -5 -4 -10 -10 -10 -5 0 -10 5
-10 10 0 6 5 10 10 10 6 0 10 -4 10 -10z"/>
<path d="M5815 1851 c-66 -40 -83 -87 -79 -221 4 -119 -11 -276 -31 -335 -24
-72 -63 -125 -91 -125 -13 0 -37 12 -54 28 -24 21 -32 39 -40 87 -16 104 -18
187 -7 292 9 89 8 108 -7 148 -20 52 -54 82 -103 91 -41 8 -101 -8 -134 -35
-22 -17 -22 -21 -10 -45 11 -20 12 -48 6 -128 -10 -146 -10 -251 3 -429 13
-187 36 -259 106 -324 23 -22 59 -63 79 -91 46 -65 81 -80 175 -77 105 3 146
17 206 71 75 67 97 101 158 247 80 190 100 283 94 438 -8 187 -34 338 -67 384
-8 12 -28 27 -43 33 -44 16 -127 12 -161 -9z m150 -61 c3 -5 2 -10 -4 -10 -5
0 -13 5 -16 10 -3 6 -2 10 4 10 5 0 13 -4 16 -10z m-79 -31 c3 -6 1 -16 -5
-22 -9 -9 -14 -8 -21 3 -9 15 -4 30 10 30 5 0 12 -5 16 -11z m24 -129 c0 -5
-2 -10 -4 -10 -3 0 -8 5 -11 10 -3 6 -1 10 4 10 6 0 11 -4 11 -10z m-477 -210
c-3 -11 -7 -20 -9 -20 -2 0 -4 9 -4 20 0 11 4 20 9 20 5 0 7 -9 4 -20z m423
-56 c-3 -9 -6 -18 -6 -20 0 -3 -4 -3 -10 1 -11 7 -2 35 12 35 6 0 7 -7 4 -16z
m132 -91 c-5 -25 -28 -28 -28 -4 0 12 6 21 16 21 9 0 14 -7 12 -17z m-538
-305 c0 -10 -4 -18 -9 -18 -10 0 -21 47 -13 55 8 7 22 -17 22 -37z m150 -135
c-1 -18 -18 -35 -24 -24 -4 6 -4 16 -1 21 7 12 25 13 25 3z m137 -25 c-3 -8
-6 -5 -6 6 -1 11 2 17 5 13 3 -3 4 -12 1 -19z m-187 -14 c0 -8 -4 -12 -10 -9
-5 3 -10 10 -10 16 0 5 5 9 10 9 6 0 10 -7 10 -16z"/>
<path d="M4785 1842 c-11 -2 -42 -14 -70 -26 -65 -30 -125 -44 -205 -50 -51
-3 -68 -9 -82 -26 -12 -15 -15 -27 -9 -37 5 -10 3 -26 -5 -42 -8 -14 -14 -46
-14 -71 0 -56 -35 -229 -50 -244 -5 -5 -10 -21 -10 -35 0 -15 -9 -46 -20 -70
-11 -24 -20 -53 -20 -65 0 -24 -26 -108 -64 -211 -56 -150 -45 -215 47 -261
49 -25 57 -26 152 -21 55 3 116 11 135 18 63 21 130 99 130 151 l0 23 13 -25
c16 -32 70 -68 114 -76 23 -4 61 1 116 17 90 25 150 69 174 126 27 65 12 106
-49 137 -56 29 -100 121 -131 273 -12 60 0 129 39 223 27 67 41 188 25 218 -6
12 -27 34 -47 49 -29 22 -48 27 -93 28 -31 1 -65 -1 -76 -3z m-15 -296 c0 -24
-28 -38 -91 -43 -60 -6 -61 -6 -57 18 3 26 30 36 106 38 30 1 42 -3 42 -13z
m-67 -370 c14 -29 17 -52 13 -85 -3 -25 -9 -82 -12 -127 l-6 -80 -74 75 c-76
77 -88 106 -64 149 5 9 17 34 26 55 30 68 88 74 117 13z m134 -178 c-3 -8 -6
-5 -6 6 -1 11 2 17 5 13 3 -3 4 -12 1 -19z"/>
</g>
</svg>
